<svg width="26" height="21" viewBox="0 0 26 21" fill="none" xmlns="http://www.w3.org/2000/svg">
<path d="M12.3267 5.6288L4.32454 12.2195V19.3328C4.32454 19.517 4.39771 19.6936 4.52794 19.8238C4.65818 19.9541 4.83481 20.0272 5.01899 20.0272L9.8827 20.0146C10.0663 20.0137 10.242 19.9402 10.3715 19.81C10.501 19.6799 10.5737 19.5038 10.5737 19.3202V15.1661C10.5737 14.9819 10.6468 14.8053 10.7771 14.6751C10.9073 14.5448 11.0839 14.4717 11.2681 14.4717H14.0459C14.2301 14.4717 14.4067 14.5448 14.5369 14.6751C14.6672 14.8053 14.7403 14.9819 14.7403 15.1661V19.3172C14.7401 19.4085 14.7578 19.4991 14.7926 19.5836C14.8273 19.6681 14.8785 19.7449 14.943 19.8096C15.0075 19.8743 15.0841 19.9257 15.1685 19.9607C15.2529 19.9957 15.3434 20.0138 15.4348 20.0138L20.2968 20.0272C20.4809 20.0272 20.6576 19.9541 20.7878 19.8238C20.918 19.6936 20.9912 19.517 20.9912 19.3328V12.2147L12.9908 5.6288C12.8967 5.55298 12.7796 5.51164 12.6587 5.51164C12.5379 5.51164 12.4208 5.55298 12.3267 5.6288V5.6288ZM24.9669 10.1084L21.3384 7.11751V1.10579C21.3384 0.967661 21.2836 0.835185 21.1859 0.73751C21.0882 0.639834 20.9557 0.584961 20.8176 0.584961H18.387C18.2489 0.584961 18.1164 0.639834 18.0188 0.73751C17.9211 0.835185 17.8662 0.967661 17.8662 1.10579V4.25727L13.9804 1.06022C13.6074 0.753355 13.1395 0.585574 12.6566 0.585574C12.1736 0.585574 11.7057 0.753355 11.3328 1.06022L0.346245 10.1084C0.293505 10.152 0.249871 10.2055 0.217837 10.266C0.185802 10.3265 0.165994 10.3926 0.159545 10.4608C0.153096 10.5289 0.160132 10.5976 0.180251 10.663C0.200371 10.7284 0.233179 10.7892 0.276801 10.8419L1.38357 12.1874C1.42707 12.2403 1.48058 12.2841 1.54104 12.3163C1.60149 12.3485 1.6677 12.3684 1.73587 12.375C1.80404 12.3816 1.87284 12.3746 1.93833 12.3546C2.00382 12.3345 2.06471 12.3018 2.11751 12.2581L12.3267 3.84928C12.4208 3.77347 12.5379 3.73213 12.6587 3.73213C12.7796 3.73213 12.8967 3.77347 12.9908 3.84928L23.2004 12.2581C23.2531 12.3018 23.3139 12.3346 23.3793 12.3547C23.4447 12.3748 23.5134 12.3818 23.5816 12.3754C23.6497 12.3689 23.7159 12.3491 23.7763 12.3171C23.8368 12.2851 23.8903 12.2414 23.9339 12.1887L25.0407 10.8432C25.0843 10.7902 25.1169 10.7291 25.1368 10.6634C25.1567 10.5977 25.1634 10.5287 25.1565 10.4605C25.1497 10.3922 25.1294 10.3259 25.0969 10.2655C25.0643 10.2051 25.0202 10.1517 24.9669 10.1084V10.1084Z" fill="#FF3D5A"/>
</svg>
